<?xml version="1.0" encoding="UTF-8" standalone="no"?>
<!-- Created with Inkscape (http://www.inkscape.org/) -->

<svg
   version="1.1"
   id="svg1"
   width="382.20117"
   height="382.19922"
   viewBox="0 0 382.20117 382.19922"
   sodipodi:docname="dragon.svg"
   inkscape:version="1.4 (e7c3feb100, 2024-10-09)"
   xmlns:inkscape="http://www.inkscape.org/namespaces/inkscape"
   xmlns:sodipodi="http://sodipodi.sourceforge.net/DTD/sodipodi-0.dtd"
   xmlns="http://www.w3.org/2000/svg"
   xmlns:svg="http://www.w3.org/2000/svg">
  <defs
     id="defs1" />
  <sodipodi:namedview
     id="namedview1"
     pagecolor="#ffffff"
     bordercolor="#000000"
     borderopacity="0.25"
     inkscape:showpageshadow="2"
     inkscape:pageopacity="0.0"
     inkscape:pagecheckerboard="0"
     inkscape:deskcolor="#d1d1d1"
     showgrid="false"
     inkscape:zoom="1"
     inkscape:cx="179"
     inkscape:cy="180"
     inkscape:window-width="2560"
     inkscape:window-height="1371"
     inkscape:window-x="0"
     inkscape:window-y="0"
     inkscape:window-maximized="1"
     inkscape:current-layer="g1"
     inkscape:clip-to-page="false" />
  <g
     inkscape:groupmode="layer"
     inkscape:label="Image"
     id="g1"
     transform="translate(-449.43555,-236.32031)">
    <path
       id="path11"
       style="display:inline;fill:#000000"
       d="M 640.53516,236.32031 A 191.10001,191.10001 0 0 0 449.43555,427.41992 191.10001,191.10001 0 0 0 640.53516,618.51953 191.10001,191.10001 0 0 0 831.63672,427.41992 191.10001,191.10001 0 0 0 640.53516,236.32031 Z m 0,13.69922 A 177.39999,177.39999 0 0 1 817.93555,427.41992 177.39999,177.39999 0 0 1 640.53516,604.82031 177.39999,177.39999 0 0 1 463.13672,427.41992 177.39999,177.39999 0 0 1 640.53516,250.01953 Z m 10.49023,19.62891 c -1.56175,0.0429 -4.03569,1.93115 -8.07227,5.82812 -3.71683,3.58832 -7.58948,6.52911 -8.60546,6.53711 -11.11169,0.0873 -38.01424,2.3542 -42.17383,3.55274 -7.45923,2.1493 -12.86396,7.49424 -18.71289,18.50781 -2.86189,5.38896 -6.37359,10.40714 -8.64063,12.34766 -2.10076,1.79816 -3.82031,3.57313 -3.82031,3.94335 0,1.11831 5.36821,-0.521 7.36914,-2.25 1.02839,-0.88863 3.36737,-3.94827 5.19727,-6.80078 5.53937,-8.63498 8.88054,-9.33432 14.65429,-3.06445 6.86186,7.45148 12.6174,7.72776 23.7793,1.14062 9.62513,-5.6802 20.45812,-15.26648 18.95312,-16.77148 -0.26197,-0.26199 -4.70775,0.71872 -9.8789,2.17969 -8.92808,2.5224 -9.80138,3.02308 -17.32617,9.93164 l -7.92383,7.27539 -2.64063,-2.07617 c -3.17411,-2.49675 -6.18068,-6.86409 -6.14648,-8.92969 0.0625,-3.77765 10.33267,-8.09087 24.96289,-10.48438 35.75286,-5.84914 43.02423,-8.96493 41.31641,-17.69921 -0.4144,-2.11938 -1.07632,-3.20134 -2.29102,-3.16797 z m 41.26953,9.95898 c -1.33256,0.003 -2.6064,0.12495 -3.73242,0.37891 -4.88128,1.10091 -10.35027,5.52909 -13.72266,11.11133 -2.49933,4.1371 -2.60636,4.8145 -1.77929,11.22851 0.93419,7.2447 2.81223,10.51131 12.67578,22.05274 2.40688,2.81632 5.64668,7.46374 7.19922,10.32617 3.2521,5.99592 3.65174,5.2665 -6.67578,12.17969 -9.99359,6.68966 -11.02116,10.60219 -5.66016,21.55078 2.73572,5.58707 4.37735,6.67371 8.80078,5.82812 3.25649,-0.62252 3.34835,-2.88072 0.30078,-7.375 -3.68912,-5.44036 -3.90752,-6.78864 -1.625,-9.99414 7.5499,-10.60286 22.17523,-5.70086 30.22266,10.13086 2.86031,5.6271 3.67694,8.2862 3.30664,10.75977 -0.8114,5.42006 -5.05981,13.34841 -10.56445,19.71484 -10.23618,11.83872 -19.78431,29.9094 -22.22461,42.06055 -0.96335,4.7969 -0.82122,6.567 1.08789,13.5332 2.98317,10.88532 2.30346,12.67712 -7.58985,20.02344 -13.63354,10.12364 -32.04173,16.87753 -61.11328,22.42187 -9.12568,1.74039 -9.49041,1.73449 -19.5,-0.3164 -5.61021,-1.1495 -12.41901,-2.38405 -15.13086,-2.74414 l -4.93164,-0.6543 1.53321,2.33789 c 2.39382,3.65116 7.2254,6.47368 16.1289,9.42383 10.38001,3.4394 15.05125,7.69261 13.61719,12.39844 -0.50532,1.6582 -1.29888,4.28512 -1.76367,5.83593 -0.46476,1.55082 -0.63193,6.479 -0.37305,10.95117 0.36815,6.35954 0.82332,8.23988 2.09375,8.63086 2.75419,0.84761 23.97772,-0.42224 32.8125,-1.96289 22.70349,-3.95916 56.08922,-23.26645 76.8125,-44.42187 4.4,-4.49175 9.63149,-9.0141 11.625,-10.04883 2.47655,-1.28544 8.18507,-2.33549 18.02344,-3.31641 7.91943,-0.78959 16.06599,-2.13304 18.10351,-2.98437 4.65837,-1.94639 7.2947,-6.23175 8.64649,-14.05274 1.24429,-7.19901 -0.31547,-15.55621 -4.41016,-23.63671 -1.77271,-3.49827 -2.33314,-5.8022 -1.88086,-7.73047 1.12868,-4.81209 6.61291,-13.56694 12.16602,-19.41993 5.09949,-5.37487 5.5367,-5.61612 8.35742,-4.63281 3.58099,1.24834 6.26155,4.99516 5.43555,7.59766 -0.33006,1.03994 -1.65384,2.88024 -2.94141,4.08984 -2.01045,1.88872 -2.23731,2.76336 -1.60938,6.19727 0.94546,5.17027 1.52494,5.6444 4.08008,3.33203 7.39835,-6.69542 8.11959,-22.19698 1.43946,-30.95508 -4.35948,-5.71557 -5.85662,-6.03094 -12.05078,-2.53515 -7.72671,4.36066 -14.86752,5.0374 -21.1543,2.0039 -5.61388,-2.70881 -13.26658,-10.16612 -15.70313,-15.30078 -1.61681,-3.40716 -1.60551,-3.74408 0.25586,-7.34766 3.47008,-6.71807 8.03917,-7.49802 12.96485,-2.21093 2.16339,2.32213 5.15234,2.05737 5.15234,-0.45703 0,-2.07903 -7.32844,-8.06804 -11.40234,-9.31836 -2.82317,-0.86645 -3.96387,-0.74216 -6.27344,0.68164 -5.31514,3.27667 -6.75195,5.73764 -6.75195,11.56054 0,4.62357 0.88782,7.16997 6.16601,17.6836 3.39151,6.75558 6.4354,13.41462 6.76367,14.79687 0.64305,2.7076 -1.44849,11.97046 -3.75195,16.62305 -2.02239,4.08485 -0.49308,10.78483 2.99219,13.11133 4.25959,2.84338 10.34497,9.30121 9.71875,10.31445 -0.89812,1.45319 -1.47817,1.24226 -9.98438,-3.64062 -4.7077,-2.70238 -10.55711,-5.12848 -14.27539,-5.92188 -5.67902,-1.21178 -6.97342,-1.15824 -13.14062,0.55078 -3.76258,1.04266 -10.45149,3.48214 -14.86328,5.42188 -4.41178,1.93975 -8.71598,3.52734 -9.56446,3.52734 -2.36102,0 -3.04601,-6.1322 -1.65625,-14.82422 2.34577,-14.67122 8.94146,-24.13117 19.60547,-28.12109 6.94259,-2.59755 8.86624,-2.2497 13.38086,2.4082 2.62848,2.71191 3.15901,3.8156 2.25977,4.71484 -0.89923,0.89923 -1.60903,0.78161 -3.02735,-0.50195 -2.37519,-2.14951 -3.19531,-2.11643 -3.19531,0.125 0,4.1607 4.50186,5.51215 7.46289,2.24024 3.36486,-3.71812 -1.21995,-12.21341 -8.47266,-15.69922 -5.01099,-2.40839 -5.01223,-2.41534 -2.7207,-7.45508 4.50899,-9.91659 3.98162,-23.63656 -1.32812,-34.57227 -3.31204,-6.82133 -7.4034,-10.88571 -23.35743,-23.20507 -14.7029,-11.35328 -20.12548,-18.66624 -22.54882,-30.40821 -1.1593,-5.61721 -1.11317,-5.91072 1.47851,-9.30859 1.47162,-1.92939 5.0718,-4.68301 8,-6.11914 5.07429,-2.48866 5.4424,-2.53228 7.85547,-0.95117 2.61867,1.71582 4.615,6.93987 4.625,12.09961 0.006,3.10221 2.44946,6.57812 4.62305,6.57812 1.79653,0 3.65616,-7.46872 2.82226,-11.33398 -1.06295,-4.92693 -4.21518,-10.472 -6.98242,-12.28516 -2.63884,-1.72906 -7.16441,-2.78328 -11.16211,-2.77344 z m -49.38476,28.72266 c -2.15555,-0.0359 -4.11371,0.31497 -6.10938,1.05078 -2.3651,0.87202 -8.63333,2.26162 -13.92969,3.08594 -5.37425,0.83644 -17.52681,4.10511 -27.5,7.39648 -22.16815,7.31597 -22.436,7.36646 -30.37109,5.81641 -5.28067,-1.03154 -7.33633,-1.0272 -10.95508,0.0215 -4.90515,1.42148 -7.25303,0.4598 -5.1289,-2.09961 1.04254,-1.25618 0.64618,-1.57749 -2.5918,-2.09765 -2.10288,-0.33781 -4.67953,-0.78913 -5.72461,-1.00391 -3.60976,-0.74189 -12.06544,1.51075 -14.38867,3.83398 -3.26282,3.26282 -2.03413,5.12167 5.10937,7.73243 8.14738,2.97765 8.97599,3.70009 8.27539,7.20312 l -0.57617,2.88086 3.24024,-1.99219 c 3.99103,-2.45388 8.99391,-4.36058 18.74023,-7.14258 4.125,-1.17743 11.16354,-3.2876 15.64062,-4.68945 5.88832,-1.84372 8.62832,-2.27463 9.9043,-1.56055 2.01693,1.12874 3.18697,0.20574 -12.27539,9.67774 -5.07685,3.11 -12.93132,6.9902 -17.45312,8.62305 -12.15517,4.3893 -14.88606,6.68254 -16.14258,13.55078 -0.56668,3.09752 -0.53982,3.11933 4.48828,3.71484 3.09668,0.36675 6.3043,1.54942 8.26758,3.04688 4.71613,3.59719 10.26989,4.82826 16.16992,3.58398 11.27942,-2.37875 12.72392,-2.34265 15.27344,0.38672 3.61171,3.86649 2.31122,7.19401 -3.94336,10.0918 -5.59684,2.59306 -4.50753,4.16234 1.58984,2.29101 4.38904,-1.34704 6.64031,-4.38878 6.77539,-9.1543 0.14082,-4.96796 -1.92257,-8.14601 -6.14648,-9.46484 -2.97678,-0.92945 -5.21456,-0.78719 -12.14844,0.76758 -8.35858,1.87424 -8.55947,1.87379 -12.23242,0 -2.39154,-1.22008 -3.97369,-2.8565 -4.39844,-4.54883 -0.84404,-3.36295 0.50474,-4.39545 19.03125,-14.58984 19.47141,-10.71433 27.86375,-14.11587 32.86328,-13.31641 5.95859,0.95282 11.44483,4.18917 14.6836,8.66016 5.7871,7.98886 5.32881,16.48974 -1.27344,23.65234 -7.36488,7.98995 -16.25754,13.16815 -51.67383,30.08789 -16.80949,8.03054 -24.32777,13.07655 -34.72266,23.30469 -13.67386,13.45452 -18.61533,22.74269 -20.7539,39.01953 -1.68212,12.80269 -2.83487,14.59338 -7.13867,11.07813 -1.31176,-1.0714 -2.74152,-4.29633 -3.76368,-8.48829 -1.41568,-5.80586 -2.34054,-7.42902 -6.55664,-11.5 -5.49642,-5.30724 -7.12533,-9.36707 -4.82617,-12.03125 1.65774,-1.92095 3.97795,-10.35469 3.07422,-11.17578 -0.32221,-0.29275 -0.79684,0.0588 -1.05469,0.78321 -0.25784,0.72443 -1.48526,2.4983 -2.72656,3.9414 l -2.25586,2.625 -1.23437,-2.30664 c -0.76996,-1.4387 -0.99263,-3.90644 -0.59375,-6.5664 0.51058,-3.40479 0.31141,-4.38873 -0.98633,-4.88672 -2.954,-1.13356 -5.08558,-0.65107 -7.19336,1.62695 -1.81101,1.95727 -1.97665,2.90051 -1.26563,7.25 0.44956,2.75 1.77509,7.54618 2.94532,10.6582 1.8685,4.96896 1.98555,6.22392 0.95898,10.30078 l -1.16992,4.64258 8.39844,8.69922 c 5.43813,5.63291 10.31713,11.98344 13.83789,18.01758 5.11003,8.75793 11.77162,16.68164 14.02539,16.68164 1.34825,0 1.33831,-0.60282 -0.10743,-7.26367 -1.35752,-6.2545 -1.85218,-31.59813 -0.64062,-32.81641 1.54245,-1.551 2.03278,0.89414 3.26953,16.28906 0.844,10.50594 1.91017,17.46446 3.18555,20.79102 2.44805,6.38523 9.68081,17.32935 16.48437,24.94531 5.74205,6.4277 20.42162,16.55307 27.78907,19.16797 16.22111,5.7573 17.90634,7.2472 20.01367,17.6875 0.98884,4.89897 0.93356,6.16262 -0.35352,8.12695 -3.14904,4.80604 -8.62305,4.12077 -13.51367,-1.6914 C 568.3306,557.41537 563.44245,555 559.51758,555 c -1.80019,0 -3.12865,0.95277 -4.5293,3.25 -1.08986,1.7875 -1.98237,3.8556 -1.98437,4.5957 -0.006,2.24128 3.96625,7.08753 7.16601,8.74219 2.74249,1.41815 3.17162,1.4117 4.80274,-0.0644 2.51415,-2.27526 5.95565,-1.16896 12.73046,4.09179 3.10547,2.41144 6.35435,4.35647 7.22071,4.32227 0.86637,-0.0342 6.07617,-2.87886 11.57617,-6.32227 l 10,-6.26171 0.66211,-6.92579 c 0.36414,-3.80989 0.22731,-12.34708 -0.30469,-18.9707 -0.90424,-11.25833 -0.63437,-15.54592 1.66406,-26.45703 0.28964,-1.375 0.14305,-3.07483 -0.32421,-3.77734 -0.46725,-0.70251 -4.84359,-2.34451 -9.72657,-3.64844 -9.51323,-2.54037 -8.60385,-1.85968 -21.43359,-16.0293 -1.90494,-2.10388 -4.92744,-4.43789 -6.7168,-5.18554 -2.84143,-1.18723 -3.70544,-1.14266 -6.81836,0.34179 -4.06912,1.94042 -5.39013,5.26955 -3.49609,8.8086 0.6933,1.29552 0.96502,3.12162 0.60547,4.05859 -0.61437,1.60098 -0.76708,1.59963 -2.56055,-0.0234 -1.04959,-0.94986 -2.59649,-3.17691 -3.4375,-4.94922 -1.33526,-2.81384 -1.35224,-3.81011 -0.13476,-7.85547 0.76683,-2.54799 1.88477,-5.55178 2.48632,-6.67578 1.33324,-2.49118 6.07683,-5.06445 9.33594,-5.06445 2.82779,0 10.81239,4.07513 15.14453,7.72852 4.60589,3.88425 8.1631,5.03391 22.39453,7.24609 16.18548,2.51592 23.46824,1.85418 38.03125,-3.45508 C 649.00611,483.9183 651.85693,482.1475 658,476.5 c 3.20792,-2.94914 7.14889,-6.043 8.75781,-6.875 2.90074,-1.50004 2.94036,-1.4817 4.64258,2.08789 1.57733,3.3077 1.84632,3.46815 3.32422,1.99023 4.09875,-4.09874 -0.15089,-12.77386 -6.30859,-12.87695 -4.06034,-0.068 -11.33511,2.61474 -18.23438,6.72461 -15.80412,9.41447 -35.4824,14.81957 -45.66406,12.54102 -12.19706,-2.72959 -17.42382,-9.89284 -18.24414,-25.00391 -1.38722,-25.55393 5.71233,-39.3816 32.34961,-63.00391 5.56737,-4.93722 11.68269,-10.85443 13.58984,-13.15039 3.93643,-4.73893 4.74441,-4.63633 11.625,1.49219 6.12201,5.45285 13.00076,6.44301 17.69531,2.54688 1.98838,-1.65021 2.85568,-6.80018 1.4336,-8.51368 -1.82637,-2.20064 -3.28573,-1.76436 -5.16992,1.54688 -1.94401,3.41635 -5.12528,3.91026 -9.75977,1.51367 -3.85058,-1.99121 -5.83837,-8.33779 -6.58203,-21.01953 -1.17342,-20.01035 -4.19836,-25.587 -16.01563,-29.51953 C 621.89803,325.80196 619,324.4164 619,323.90234 c 0,-1.01626 2.06565,-1.99782 15.08594,-7.16601 l 8.58789,-3.40821 2.62305,2.0918 c 1.93616,1.54384 2.37498,2.48304 1.67773,3.58594 -0.51959,0.82188 -0.95098,2.01279 -0.95899,2.64648 -0.0216,1.62945 5.14506,3.23159 8.41016,2.60743 2.55549,-0.48852 2.69976,-0.77764 2.07617,-4.14258 -0.83306,-4.49524 -4.04206,-9.84977 -6.30078,-10.51172 -2.78231,-0.8154 -5.13547,-1.23949 -7.29101,-1.27539 z m -60.28516,4.11914 c -0.32896,0.004 -0.66985,0.0543 -1.01562,0.16211 -3.28457,1.02386 -3.81062,2.71296 -1.45313,4.67187 2.39748,1.99215 3.71863,1.86222 5.21484,-0.50976 1.27522,-2.02164 -0.44335,-4.35083 -2.74609,-4.32422 z m 56.11133,79.82031 a 32.25,32.25 0 0 0 -32.25,32.25 32.25,32.25 0 0 0 32.25,32.25 32.25,32.25 0 0 0 32.25,-32.25 32.25,32.25 0 0 0 -32.25,-32.25 z M 722.5332,502.375 c -0.70373,0.003 -2.72732,1.79072 -6.2832,5.36133 -11.83186,11.88086 -33.34793,25.39369 -48.11914,30.2207 -11.50144,3.75849 -15.21592,5.66032 -14.5332,7.43945 0.8092,2.10875 5.94778,2.71443 13.19531,1.55664 3.6013,-0.57532 6.88298,-1.25246 7.29297,-1.50585 0.40998,-0.25338 1.93115,-0.0114 3.3789,0.53906 3.78346,1.43847 5.85592,6.98182 5.01368,13.4082 -1.06948,8.16015 -4.21498,11.44768 -12.47852,13.03906 -5.71857,1.10128 -11.00308,3.73845 -10.95898,5.46875 0.0224,0.87897 -2.2e-4,1.5647 2.48632,3.875 2.09071,1.94252 4.70985,3.93694 6.58594,4.42578 0.36291,0.0946 4.9503,-2.15558 10.08984,-4.54101 10.97893,-5.09567 13.74907,-7.95562 16.82813,-17.37891 4.88656,-14.95506 5.9107,-15.6108 37.96875,-24.29492 14.15613,-3.83471 22.1773,-8.65522 25.73047,-15.46289 1.90798,-3.65558 2.11189,-12.19484 0.36719,-15.39062 -1.10044,-2.0157 -1.82056,-2.27888 -4.875,-1.78321 -1.97117,0.31987 -4.27375,1.27179 -5.11719,2.11524 -1.37805,1.37805 -1.32728,1.5332 0.50586,1.5332 1.12198,0 3.05396,1.07954 4.29297,2.39844 2.12985,2.26712 2.16871,2.56054 0.70117,5.39844 -1.68216,3.25292 -7.59478,8.66869 -14.375,13.16796 -3.13753,2.08203 -6.46634,3.14581 -12.55274,4.00977 -7.39254,1.04937 -9.50921,0.94334 -19.70312,-0.98047 -6.28178,-1.18551 -12.65462,-1.90852 -14.16016,-1.60742 -5.46552,1.09311 -3.63066,-1.32341 5.26367,-6.93555 12.91484,-8.14898 19.38094,-13.70325 21.81836,-18.73828 1.72419,-3.5617 2.34046,-5.34131 1.63672,-5.33789 z"
       inkscape:label="dragon"
       sodipodi:insensitive="true" />
  </g>
</svg>
